<svg width="137" height="47" viewBox="0 0 137 47" fill="none" xmlns="http://www.w3.org/2000/svg">
<path d="M23.86 9.99551V39.8965L19.09 42.9501V13.2023L19.22 13.1257L19.09 13.0381L14.32 9.99551L9.54002 6.94192L4.77002 3.88834L9.54002 0.845703H9.55002L14.32 3.88834L19.09 6.94192L23.86 9.99551Z" fill="#E14C04"/>
<path d="M14.32 34.3695V45.9928L13.81 46.3212L9.54 43.5959L4.77 40.5424L0 37.4997V6.94201L4.77 3.88843V34.4133L9.54 37.4559V31.316L14.32 34.3695Z" fill="#E14C04"/>
<path d="M14.32 16.1247V28.2296L9.54004 25.176V13.082L14.32 16.1247Z" fill="#E14C04"/>
<path d="M49 16.639H42.63L41.77 19.5832H37.49L43.31 0.834839H48.31L54.14 19.5832H49.84L49 16.639ZM47.82 12.6223L45.82 5.73808L43.82 12.6223H47.82Z" fill="#E14C04"/>
<path d="M74.22 14.0889C74.22 17.3723 71.75 19.5613 68.69 19.5613H61.5V0.834839H68.2C71.2 0.834839 73.61 2.94717 73.61 6.18682C73.6254 6.88221 73.4997 7.57268 73.2421 8.20856C72.9845 8.84443 72.6012 9.40989 72.12 9.86425C72.7769 10.3061 73.3165 10.9286 73.685 11.6699C74.0535 12.4112 74.2379 13.2453 74.22 14.0889ZM65.41 4.85156V8.13498H68.2C68.3993 8.14283 68.5979 8.10527 68.7833 8.0247C68.9686 7.94413 69.1367 7.8223 69.2767 7.66693C69.4168 7.51156 69.5259 7.32604 69.597 7.12212C69.6682 6.91821 69.6998 6.70034 69.69 6.48233C69.6985 6.26569 69.6658 6.04949 69.5939 5.84743C69.522 5.64536 69.4126 5.46185 69.2725 5.30853C69.1324 5.1552 68.9647 5.03541 68.7801 4.95675C68.5955 4.87808 68.3979 4.84226 68.2 4.85156H65.41ZM70.3 13.7715C70.3143 13.5346 70.2828 13.2969 70.2073 13.0743C70.1319 12.8516 70.0143 12.6489 69.8623 12.4794C69.7103 12.3099 69.5273 12.1775 69.3253 12.0909C69.1232 12.0042 68.9067 11.9653 68.69 11.9766H65.41V15.5665H68.69C68.9063 15.576 69.1221 15.5359 69.3234 15.4487C69.5247 15.3614 69.7071 15.229 69.8588 15.0599C70.0104 14.8907 70.1281 14.6887 70.2041 14.4668C70.2801 14.2449 70.3127 14.0081 70.3 13.7715Z" fill="#E14C04"/>
<path d="M92.1101 15.457V19.5832H82.1101V0.834839H86.0001V15.457H92.1101Z" fill="#E14C04"/>
<path d="M110.25 16.639H103.88L103 19.5832H98.74L104.57 0.834839H109.57L115.39 19.5832H111.1L110.25 16.639ZM109.07 12.6223L107.07 5.73808L105.07 12.6223H109.07Z" fill="#E14C04"/>
<path d="M132.15 19.5832L126.67 10.904V19.5832H122.75V0.834839H126.67V8.97773L131.9 0.834839H136.36L130.58 9.96276L136.58 19.5832H132.15Z" fill="#E14C04"/>
<path d="M47.1199 42.2717C47.1212 42.7852 47.0298 43.2939 46.8508 43.7686C46.6719 44.2433 46.409 44.6747 46.0772 45.0378C45.7454 45.4009 45.3514 45.6886 44.9176 45.8845C44.4839 46.0803 44.0191 46.1804 43.5499 46.179H37.8999V31.8523H43.1199C44.0322 31.8523 44.9072 32.249 45.5523 32.955C46.1975 33.6611 46.5599 34.6187 46.5599 35.6173C46.569 36.2575 46.4171 36.8881 46.1208 37.4402C45.8245 37.9922 45.3952 38.4445 44.8799 38.7475C45.5377 39.0138 46.1051 39.4944 46.5056 40.1246C46.9061 40.7547 47.1205 41.5041 47.1199 42.2717ZM38.8899 32.8702V38.3425H43.1199C43.7443 38.2813 44.3253 37.9666 44.7484 37.4602C45.1714 36.9539 45.4061 36.2925 45.4061 35.6063C45.4061 34.9202 45.1714 34.2588 44.7484 33.7525C44.3253 33.2461 43.7443 32.9313 43.1199 32.8702H38.8899ZM46.1299 42.2717C46.1339 41.8966 46.0703 41.5242 45.9427 41.176C45.8152 40.8278 45.6263 40.5104 45.3867 40.2421C45.1471 39.9738 44.8616 39.7598 44.5464 39.6122C44.2313 39.4647 43.8927 39.3866 43.5499 39.3823H38.8899V45.1611H43.5499C43.8927 45.1568 44.2313 45.0787 44.5464 44.9311C44.8616 44.7836 45.1471 44.5696 45.3867 44.3013C45.6263 44.033 45.8152 43.7156 45.9427 43.3674C46.0703 43.0191 46.1339 42.6468 46.1299 42.2717Z" fill="#E14C04"/>
<path d="M68.4201 42.5344H61.8601L60.5801 46.179H59.5801L64.6601 31.8523H65.6601L70.7301 46.179H69.7301L68.4201 42.5344ZM68.0701 41.5165L65.1501 33.1766L62.2301 41.5165H68.0701Z" fill="#E14C04"/>
<path d="M90.5299 45.1611V46.179H82.1699V45.1611L89.2399 32.8702H82.3599V31.8523H90.3599V32.8702L83.2799 45.1611H90.5299Z" fill="#E14C04"/>
<path d="M111.14 42.5343H104.58L103.3 46.1789H102.3L107.38 31.8522H108.38L113.45 46.1789H112.45L111.14 42.5343ZM110.78 41.5164L107.87 33.1765L105 41.5164H110.78ZM108 30.3856H107.08L108.58 27.7808H109.7L108 30.3856Z" fill="#E14C04"/>
<path d="M130.89 40.3016H126.75V46.179H125.75V31.8523H130.91C131.848 31.8505 132.754 32.2223 133.459 32.8981C134.165 33.574 134.621 34.5078 134.744 35.5251C134.866 36.5425 134.646 37.5738 134.125 38.4266C133.603 39.2794 132.816 39.8953 131.91 40.1594L135.16 46.179H134L130.89 40.3016ZM126.75 39.2838H130.92C131.697 39.2838 132.442 38.9459 132.992 38.3445C133.541 37.7431 133.85 36.9275 133.85 36.077C133.85 35.2265 133.541 34.4108 132.992 33.8094C132.442 33.208 131.697 32.8702 130.92 32.8702H126.75V39.2838Z" fill="#E14C04"/>
</svg>
